Patient4_TMGait_0pt2_01_left_12_GRF.mot
version=1
nRows=26
nColumns=19
inDegrees=no
endheader
time	F1x	F1y	F1z	M1x	M1y	M1z	F2x	F2y	F2z	M2x	M2y	M2z	EC1x	EC1y	EC1z	EC2x	EC2y	EC2z
26.95	3.5846	35.4925	7.4297	-13.1514	-7.0239	28.6917	-19.7382	676.3638	-26.7156	248.6576	39.591	726.4527	-0.0592	0.0182	-0.0073	-0.0462	0.0165	0.9585
26.9752	1.3628	30.923	6.5487	-11.2688	-6.5602	25.9489	-20.2475	697.3162	-26.8073	256.4136	40.1548	748.1037	-0.0592	0.0182	-0.0073	-0.0462	0.0165	0.9585
27.0004	-0.61365	25.3597	5.4841	-9.0926	-5.9016	22.0282	-21.3136	723.2345	-26.9193	266.058	40.8688	774.9903	-0.0592	0.0182	-0.0073	-0.0462	0.0165	0.9585
27.0256	-2.0277	19.2897	4.299	-6.808	-5.0191	17.3118	-22.8551	752.9346	-27.0305	277.1447	41.6368	805.803	-0.0592	0.0182	-0.0073	-0.0462	0.0165	0.9585
27.0509	-2.7342	13.3645	3.0985	-4.6379	-3.9631	12.4165	-24.6619	784.4831	-27.1116	288.9397	42.3203	838.3908	-0.0592	0.0182	-0.0073	-0.0462	0.0165	0.9585
27.0761	-2.8746	8.2372	2.0268	-2.7941	-2.9057	8.0033	-26.4241	815.3623	-27.1344	300.4878	42.7595	869.9627	-0.0592	0.0182	-0.0073	-0.0462	0.0165	0.9585
27.1013	-2.6897	4.2403	1.1775	-1.3776	-1.9998	4.4551	-27.7748	842.7018	-27.0938	310.6992	42.8137	897.3752	-0.0592	0.0182	-0.0073	-0.0462	0.0165	0.9585
27.1265	-2.3614	1.3713	0.56701	-0.37528	-1.3077	1.8307	-28.3943	863.5696	-27.0107	318.46	42.4	917.4968	-0.0592	0.0182	-0.0073	-0.0462	0.0165	0.9585
27.1517	-2.0116	-0.56078	0.16775	0.29138	-0.83085	-0.0064426	-28.1053	875.3835	-26.9063	322.7906	41.502	927.6616	-0.0592	0.0182	-0.0073	-0.0462	0.0165	0.9585
27.1769	-1.7109	-1.8288	-0.066759	0.72659	-0.5365	-1.2801	-26.8961	876.5584	-26.7997	323.0888	40.1746	926.3296	-0.0592	0.0182	-0.0073	-0.0462	0.0165	0.9585
27.2021	-1.4884	-2.7165	-0.18533	1.0349	-0.37801	-2.2377	-24.8731	867.0919	-26.7235	319.3472	38.5352	913.6481	-0.0592	0.0182	-0.0073	-0.0462	0.0165	0.9585
27.2274	-1.3405	-3.473	-0.23421	1.3065	-0.30337	-3.1048	-22.2059	848.6233	-26.7244	312.1776	36.7346	891.4518	-0.0592	0.0182	-0.0073	-0.0462	0.0165	0.9585
27.2526	-1.2387	-4.2792	-0.25462	1.605	-0.25977	-4.0484	-19.0698	824.0114	-26.8492	302.6579	34.9186	862.7744	-0.0592	0.0182	-0.0073	-0.0462	0.0165	0.9585
27.2778	-1.1348	-5.2188	-0.27769	1.9569	-0.19551	-5.1419	-15.6058	796.709	-27.1173	292.1009	33.1844	831.181	-0.0592	0.0182	-0.0073	-0.0462	0.0165	0.9585
27.303	-0.9628	-6.2478	-0.32685	2.3412	-0.061168	-6.3317	-11.9066	770.1343	-27.5092	281.8154	31.5646	800.126	-0.0592	0.0182	-0.0073	-0.0462	0.0165	0.9585
27.3282	-0.64562	-7.1551	-0.415	2.6753	0.18201	-7.3924	-8.0125	747.1754	-27.9872	272.9127	30.0494	772.4681	-0.0592	0.0182	-0.0073	-0.0462	0.0165	0.9585
27.3534	-0.1064	-7.528	-0.54027	2.8011	0.55629	-7.8776	-3.9255	729.8459	-28.515	266.172	28.6139	750.1619	-0.0592	0.0182	-0.0073	-0.0462	0.0165	0.9585
27.3786	0.71838	-6.7193	-0.68374	2.4722	1.061	-7.085	0.35613	719.0664	-29.0723	261.9529	27.2353	734.0878	-0.0592	0.0182	-0.0073	-0.0462	0.0165	0.9585
27.4039	1.8613	-3.8361	-0.80138	1.3517	1.6571	-4.045	4.7676	714.5262	-29.6662	260.1439	25.9307	723.9622	-0.0592	0.0182	-0.0073	-0.0462	0.0165	0.9585
27.4291	3.2982	2.2237	-0.81929	-0.9769	2.2523	2.4434	9.1407	714.6788	-30.3252	260.1632	24.7739	718.3639	-0.0592	0.0182	-0.0073	-0.0462	0.0165	0.9585
27.4543	4.9019	12.6544	-0.63096	-4.967	2.6791	13.6912	13.2152	716.9956	-31.0679	261.0552	23.864	715.0015	-0.0592	0.0182	-0.0073	-0.0462	0.0165	0.9585
27.4795	6.3834	28.5133	-0.094563	-11.0185	2.6679	30.8674	16.6502	718.3537	-31.8595	261.6389	23.2821	711.0857	-0.0592	0.0182	-0.0073	-0.0462	0.0165	0.9585
27.5047	7.249	50.3506	0.95992	-19.3339	1.8402	54.6044	19.0709	715.4595	-32.6068	260.6731	23.0706	703.6872	-0.0592	0.0182	-0.0073	-0.0462	0.0165	0.9585
27.5299	6.9459	77.8376	2.7061	-29.776	-0.20906	84.5953	20.2422	705.5892	-33.1585	257.1369	23.1722	690.3651	-0.0592	0.0182	-0.0073	-0.0462	0.0165	0.9585
27.5551	5.3755	109.7926	5.2926	-41.8762	-3.6845	119.5884	20.235	687.3336	-33.3234	250.5084	23.3868	669.8125	-0.0592	0.0182	-0.0073	-0.0462	0.0165	0.9585
27.5804	2.8533	144.6131	8.6597	-55.0157	-8.395	157.8064	19.3996	660.8263	-32.9582	240.8429	23.4602	642.0722	-0.0592	0.0182	-0.0073	-0.0462	0.0165	0.9585
